<svg xmlns="http://www.w3.org/2000/svg" viewBox="0 0 64 64" role="img" aria-label="Spiralpalooza">
  <rect width="64" height="64" rx="12" fill="#7B3A0E"/>
  <g transform="translate(0.7,-3.9)">
    <path d="M 34.93 32.0 L 35.22 31.55 L 35.37 31.02 L 35.41 30.42 L 35.33 29.77 L 35.13 29.05 L 34.78 28.31 L 34.23 27.58 L 33.49 26.97 L 32.59 26.55 L 31.62 26.38 L 30.67 26.47 L 29.79 26.75 L 29.0 27.14 L 28.25 27.56 L 27.47 27.97 L 26.59 28.4 L 25.57 28.92 L 24.46 29.66 L 23.38 30.7 L 22.52 32.08 L 22.04 33.77 L 22.07 35.62 L 22.65 37.45 L 23.7 39.09 L 25.08 40.47 L 26.65 41.55 L 28.29 42.38 L 29.96 43.0 L 31.64 43.44 L 33.34 43.65 L 35.03 43.59 L 36.69 43.21 L 38.26 42.49 L 39.72 41.46 L 41.08 40.17 L 42.36 38.66 L 43.61 36.94 L 44.84 34.97 L 45.99 32.68 L 46.89 30.03 L 47.34 27.11 L 47.16 24.09 L 46.26 21.23 L 44.71 18.8 L 42.66 16.96 L 40.31 15.73 L 37.84 15.04 L 35.34 14.74 L 32.83 14.68 L 30.27 14.8 L 27.58 15.12 L 24.76 15.77 L 21.89 16.91 L 19.14 18.66 L 16.74 21.01 L 14.87 23.83 L 13.57 26.93 L 12.78 30.11 L 12.36 33.28 L 12.17 36.44 L 12.19 39.65 L 12.49 42.95 L 13.25 46.31 L 14.66 49.59 L 16.89 52.56 L 19.96 54.94 L 23.74 56.48 L 27.97 57.03 L 32.33 56.63 L 36.53 55.44 L 40.43 53.7 L 44.02 51.62 L 47.32 49.32 L 50.36 46.78"
          fill="none" stroke="#E8D840" stroke-width="4.2" stroke-linecap="round" stroke-linejoin="round"/>
  </g>
</svg>
